<mxfile host="app.diagrams.net" modified="2023-07-31T09:53:00.742Z" agent="Mozilla/5.0 (Windows NT 10.0; Win64; x64) AppleWebKit/537.36 (KHTML, like Gecko) Chrome/115.0.0.0 Safari/537.36" etag="BN7YVEwG9ePKuNXBISeH" version="21.6.6" type="device">
  <diagram id="EyTLk31fo0_5xkoQDOpj" name="Page-1">
    <mxGraphModel dx="1318" dy="572" grid="1" gridSize="10" guides="1" tooltips="1" connect="1" arrows="1" fold="1" page="1" pageScale="1" pageWidth="850" pageHeight="1100" math="0" shadow="0">
      <root>
        <mxCell id="0" />
        <mxCell id="1" parent="0" />
        <mxCell id="GWUgByOomYjmYWT72F_C-1" value="reality_show" style="whiteSpace=wrap;html=1;align=center;" vertex="1" parent="1">
          <mxGeometry x="590" y="680" width="100" height="40" as="geometry" />
        </mxCell>
        <mxCell id="GWUgByOomYjmYWT72F_C-3" value="user" style="whiteSpace=wrap;html=1;align=center;shadow=0;" vertex="1" parent="1">
          <mxGeometry x="580" y="360" width="100" height="40" as="geometry" />
        </mxCell>
        <mxCell id="GWUgByOomYjmYWT72F_C-4" value="Tv_channel" style="whiteSpace=wrap;html=1;align=center;" vertex="1" parent="1">
          <mxGeometry x="220" y="360" width="100" height="40" as="geometry" />
        </mxCell>
        <mxCell id="GWUgByOomYjmYWT72F_C-8" value="&lt;u&gt;producer_id&lt;/u&gt;" style="ellipse;whiteSpace=wrap;html=1;align=center;" vertex="1" parent="1">
          <mxGeometry x="1010" y="280" width="100" height="40" as="geometry" />
        </mxCell>
        <mxCell id="GWUgByOomYjmYWT72F_C-9" value="&lt;u&gt;chennel_Id&lt;/u&gt;" style="ellipse;whiteSpace=wrap;html=1;align=center;" vertex="1" parent="1">
          <mxGeometry x="210" y="260" width="100" height="40" as="geometry" />
        </mxCell>
        <mxCell id="GWUgByOomYjmYWT72F_C-10" value="&lt;u&gt;show_id&lt;/u&gt;" style="ellipse;whiteSpace=wrap;html=1;align=center;" vertex="1" parent="1">
          <mxGeometry x="410" y="740" width="100" height="40" as="geometry" />
        </mxCell>
        <mxCell id="GWUgByOomYjmYWT72F_C-11" value="country" style="ellipse;whiteSpace=wrap;html=1;align=center;" vertex="1" parent="1">
          <mxGeometry x="1200" y="340" width="100" height="40" as="geometry" />
        </mxCell>
        <mxCell id="GWUgByOomYjmYWT72F_C-12" value="com_name" style="ellipse;whiteSpace=wrap;html=1;align=center;" vertex="1" parent="1">
          <mxGeometry x="1140" y="280" width="100" height="40" as="geometry" />
        </mxCell>
        <mxCell id="GWUgByOomYjmYWT72F_C-15" value="basic_info" style="ellipse;whiteSpace=wrap;html=1;align=center;" vertex="1" parent="1">
          <mxGeometry x="630" y="780" width="100" height="40" as="geometry" />
        </mxCell>
        <mxCell id="GWUgByOomYjmYWT72F_C-16" value="name" style="ellipse;whiteSpace=wrap;html=1;align=center;" vertex="1" parent="1">
          <mxGeometry x="510" y="780" width="100" height="40" as="geometry" />
        </mxCell>
        <mxCell id="GWUgByOomYjmYWT72F_C-17" value="partisipant_name" style="ellipse;shape=doubleEllipse;margin=3;whiteSpace=wrap;html=1;align=center;" vertex="1" parent="1">
          <mxGeometry x="740" y="750" width="110" height="40" as="geometry" />
        </mxCell>
        <mxCell id="GWUgByOomYjmYWT72F_C-19" value="producer" style="whiteSpace=wrap;html=1;align=center;" vertex="1" parent="1">
          <mxGeometry x="1020" y="360" width="100" height="40" as="geometry" />
        </mxCell>
        <mxCell id="GWUgByOomYjmYWT72F_C-21" value="name" style="ellipse;whiteSpace=wrap;html=1;align=center;" vertex="1" parent="1">
          <mxGeometry x="100" y="270" width="100" height="40" as="geometry" />
        </mxCell>
        <mxCell id="GWUgByOomYjmYWT72F_C-22" value="started_year" style="ellipse;whiteSpace=wrap;html=1;align=center;" vertex="1" parent="1">
          <mxGeometry x="50" y="320" width="100" height="40" as="geometry" />
        </mxCell>
        <mxCell id="GWUgByOomYjmYWT72F_C-23" value="headOffice" style="ellipse;whiteSpace=wrap;html=1;align=center;" vertex="1" parent="1">
          <mxGeometry x="50" y="380" width="100" height="40" as="geometry" />
        </mxCell>
        <mxCell id="GWUgByOomYjmYWT72F_C-24" value="&lt;u&gt;user_Id&lt;/u&gt;" style="ellipse;whiteSpace=wrap;html=1;align=center;" vertex="1" parent="1">
          <mxGeometry x="460" y="280" width="100" height="40" as="geometry" />
        </mxCell>
        <mxCell id="GWUgByOomYjmYWT72F_C-25" value="username" style="ellipse;whiteSpace=wrap;html=1;align=center;" vertex="1" parent="1">
          <mxGeometry x="570" y="260" width="100" height="40" as="geometry" />
        </mxCell>
        <mxCell id="GWUgByOomYjmYWT72F_C-26" value="pssword" style="ellipse;whiteSpace=wrap;html=1;align=center;" vertex="1" parent="1">
          <mxGeometry x="700" y="260" width="100" height="40" as="geometry" />
        </mxCell>
        <mxCell id="GWUgByOomYjmYWT72F_C-27" value="age" style="ellipse;whiteSpace=wrap;html=1;align=center;" vertex="1" parent="1">
          <mxGeometry x="770" y="320" width="100" height="40" as="geometry" />
        </mxCell>
        <mxCell id="GWUgByOomYjmYWT72F_C-28" value="brodcast" style="shape=rhombus;perimeter=rhombusPerimeter;whiteSpace=wrap;html=1;align=center;" vertex="1" parent="1">
          <mxGeometry x="250" y="510" width="120" height="60" as="geometry" />
        </mxCell>
        <mxCell id="GWUgByOomYjmYWT72F_C-33" value="rate" style="shape=rhombus;perimeter=rhombusPerimeter;whiteSpace=wrap;html=1;align=center;" vertex="1" parent="1">
          <mxGeometry x="570" y="510" width="120" height="60" as="geometry" />
        </mxCell>
        <mxCell id="GWUgByOomYjmYWT72F_C-34" value="make" style="shape=rhombus;perimeter=rhombusPerimeter;whiteSpace=wrap;html=1;align=center;" vertex="1" parent="1">
          <mxGeometry x="890" y="530" width="120" height="60" as="geometry" />
        </mxCell>
        <mxCell id="GWUgByOomYjmYWT72F_C-35" value="" style="endArrow=none;html=1;rounded=0;entryX=0.396;entryY=0.024;entryDx=0;entryDy=0;entryPerimeter=0;" edge="1" parent="1" source="GWUgByOomYjmYWT72F_C-9" target="GWUgByOomYjmYWT72F_C-4">
          <mxGeometry relative="1" as="geometry">
            <mxPoint x="250" y="320" as="sourcePoint" />
            <mxPoint x="260" y="350" as="targetPoint" />
          </mxGeometry>
        </mxCell>
        <mxCell id="GWUgByOomYjmYWT72F_C-39" value="" style="endArrow=none;html=1;rounded=0;" edge="1" parent="1">
          <mxGeometry relative="1" as="geometry">
            <mxPoint x="190" y="300" as="sourcePoint" />
            <mxPoint x="260" y="360" as="targetPoint" />
          </mxGeometry>
        </mxCell>
        <mxCell id="GWUgByOomYjmYWT72F_C-40" value="" style="endArrow=none;html=1;rounded=0;entryX=0;entryY=0.5;entryDx=0;entryDy=0;exitX=1;exitY=0.5;exitDx=0;exitDy=0;" edge="1" parent="1" source="GWUgByOomYjmYWT72F_C-22" target="GWUgByOomYjmYWT72F_C-4">
          <mxGeometry relative="1" as="geometry">
            <mxPoint x="200" y="310" as="sourcePoint" />
            <mxPoint x="267" y="366" as="targetPoint" />
          </mxGeometry>
        </mxCell>
        <mxCell id="GWUgByOomYjmYWT72F_C-41" value="" style="endArrow=none;html=1;rounded=0;exitX=1;exitY=0.5;exitDx=0;exitDy=0;" edge="1" parent="1" source="GWUgByOomYjmYWT72F_C-23">
          <mxGeometry relative="1" as="geometry">
            <mxPoint x="160" y="350" as="sourcePoint" />
            <mxPoint x="220" y="380" as="targetPoint" />
          </mxGeometry>
        </mxCell>
        <mxCell id="GWUgByOomYjmYWT72F_C-42" value="" style="endArrow=none;html=1;rounded=0;entryX=0.396;entryY=0.024;entryDx=0;entryDy=0;entryPerimeter=0;" edge="1" parent="1">
          <mxGeometry relative="1" as="geometry">
            <mxPoint x="629.4100000000001" y="299" as="sourcePoint" />
            <mxPoint x="629.4100000000001" y="360" as="targetPoint" />
          </mxGeometry>
        </mxCell>
        <mxCell id="GWUgByOomYjmYWT72F_C-43" value="" style="endArrow=none;html=1;rounded=0;entryX=0.5;entryY=0;entryDx=0;entryDy=0;exitX=0;exitY=1;exitDx=0;exitDy=0;" edge="1" parent="1" source="GWUgByOomYjmYWT72F_C-26" target="GWUgByOomYjmYWT72F_C-3">
          <mxGeometry relative="1" as="geometry">
            <mxPoint x="639.4100000000001" y="309" as="sourcePoint" />
            <mxPoint x="639.4100000000001" y="370" as="targetPoint" />
          </mxGeometry>
        </mxCell>
        <mxCell id="GWUgByOomYjmYWT72F_C-44" value="" style="endArrow=none;html=1;rounded=0;entryX=0.5;entryY=0;entryDx=0;entryDy=0;exitX=0;exitY=0.5;exitDx=0;exitDy=0;" edge="1" parent="1" source="GWUgByOomYjmYWT72F_C-27" target="GWUgByOomYjmYWT72F_C-3">
          <mxGeometry relative="1" as="geometry">
            <mxPoint x="725" y="304" as="sourcePoint" />
            <mxPoint x="640" y="370" as="targetPoint" />
          </mxGeometry>
        </mxCell>
        <mxCell id="GWUgByOomYjmYWT72F_C-45" value="" style="endArrow=none;html=1;rounded=0;entryX=0.5;entryY=1;entryDx=0;entryDy=0;" edge="1" parent="1" target="GWUgByOomYjmYWT72F_C-24">
          <mxGeometry relative="1" as="geometry">
            <mxPoint x="630" y="360" as="sourcePoint" />
            <mxPoint x="640" y="370" as="targetPoint" />
          </mxGeometry>
        </mxCell>
        <mxCell id="GWUgByOomYjmYWT72F_C-46" value="" style="endArrow=none;html=1;rounded=0;entryX=0.5;entryY=0;entryDx=0;entryDy=0;exitX=0;exitY=0.5;exitDx=0;exitDy=0;" edge="1" parent="1" target="GWUgByOomYjmYWT72F_C-19">
          <mxGeometry relative="1" as="geometry">
            <mxPoint x="1070" y="320" as="sourcePoint" />
            <mxPoint x="930" y="340" as="targetPoint" />
          </mxGeometry>
        </mxCell>
        <mxCell id="GWUgByOomYjmYWT72F_C-47" value="" style="endArrow=none;html=1;rounded=0;entryX=0.5;entryY=0;entryDx=0;entryDy=0;exitX=0.396;exitY=1.024;exitDx=0;exitDy=0;exitPerimeter=0;" edge="1" parent="1" source="GWUgByOomYjmYWT72F_C-12" target="GWUgByOomYjmYWT72F_C-19">
          <mxGeometry relative="1" as="geometry">
            <mxPoint x="1080" y="330" as="sourcePoint" />
            <mxPoint x="1080" y="370" as="targetPoint" />
          </mxGeometry>
        </mxCell>
        <mxCell id="GWUgByOomYjmYWT72F_C-48" value="" style="endArrow=none;html=1;rounded=0;exitX=0;exitY=0.5;exitDx=0;exitDy=0;" edge="1" parent="1" source="GWUgByOomYjmYWT72F_C-11">
          <mxGeometry relative="1" as="geometry">
            <mxPoint x="1190" y="331" as="sourcePoint" />
            <mxPoint x="1070" y="360" as="targetPoint" />
          </mxGeometry>
        </mxCell>
        <mxCell id="GWUgByOomYjmYWT72F_C-49" value="" style="endArrow=none;html=1;rounded=0;entryX=0.414;entryY=0.024;entryDx=0;entryDy=0;entryPerimeter=0;" edge="1" parent="1" target="GWUgByOomYjmYWT72F_C-10">
          <mxGeometry relative="1" as="geometry">
            <mxPoint x="630" y="720" as="sourcePoint" />
            <mxPoint x="295" y="640" as="targetPoint" />
            <Array as="points" />
          </mxGeometry>
        </mxCell>
        <mxCell id="GWUgByOomYjmYWT72F_C-50" value="" style="endArrow=none;html=1;rounded=0;entryX=0.5;entryY=0;entryDx=0;entryDy=0;exitX=0.5;exitY=1;exitDx=0;exitDy=0;" edge="1" parent="1" source="GWUgByOomYjmYWT72F_C-1" target="GWUgByOomYjmYWT72F_C-16">
          <mxGeometry relative="1" as="geometry">
            <mxPoint x="640" y="730" as="sourcePoint" />
            <mxPoint x="461" y="751" as="targetPoint" />
            <Array as="points" />
          </mxGeometry>
        </mxCell>
        <mxCell id="GWUgByOomYjmYWT72F_C-51" value="" style="endArrow=none;html=1;rounded=0;entryX=0.5;entryY=0;entryDx=0;entryDy=0;" edge="1" parent="1" target="GWUgByOomYjmYWT72F_C-15">
          <mxGeometry relative="1" as="geometry">
            <mxPoint x="640" y="720" as="sourcePoint" />
            <mxPoint x="570" y="790" as="targetPoint" />
            <Array as="points" />
          </mxGeometry>
        </mxCell>
        <mxCell id="GWUgByOomYjmYWT72F_C-52" value="" style="endArrow=none;html=1;rounded=0;exitX=0.5;exitY=1;exitDx=0;exitDy=0;" edge="1" parent="1" source="GWUgByOomYjmYWT72F_C-1" target="GWUgByOomYjmYWT72F_C-17">
          <mxGeometry relative="1" as="geometry">
            <mxPoint x="650" y="730" as="sourcePoint" />
            <mxPoint x="690" y="790" as="targetPoint" />
            <Array as="points" />
          </mxGeometry>
        </mxCell>
        <mxCell id="GWUgByOomYjmYWT72F_C-53" value="" style="endArrow=none;html=1;rounded=0;entryX=0.5;entryY=0;entryDx=0;entryDy=0;exitX=0.5;exitY=1;exitDx=0;exitDy=0;" edge="1" parent="1" source="GWUgByOomYjmYWT72F_C-4" target="GWUgByOomYjmYWT72F_C-28">
          <mxGeometry relative="1" as="geometry">
            <mxPoint x="640" y="370" as="sourcePoint" />
            <mxPoint x="520" y="330" as="targetPoint" />
          </mxGeometry>
        </mxCell>
        <mxCell id="GWUgByOomYjmYWT72F_C-63" value="1" style="edgeLabel;html=1;align=center;verticalAlign=middle;resizable=0;points=[];" vertex="1" connectable="0" parent="GWUgByOomYjmYWT72F_C-53">
          <mxGeometry x="-0.6761" y="5" relative="1" as="geometry">
            <mxPoint as="offset" />
          </mxGeometry>
        </mxCell>
        <mxCell id="GWUgByOomYjmYWT72F_C-54" value="" style="endArrow=none;html=1;rounded=0;exitX=0.5;exitY=1;exitDx=0;exitDy=0;entryX=0;entryY=0.5;entryDx=0;entryDy=0;" edge="1" parent="1" target="GWUgByOomYjmYWT72F_C-1">
          <mxGeometry relative="1" as="geometry">
            <mxPoint x="310" y="570" as="sourcePoint" />
            <mxPoint x="580" y="700" as="targetPoint" />
          </mxGeometry>
        </mxCell>
        <mxCell id="GWUgByOomYjmYWT72F_C-64" value="M" style="edgeLabel;html=1;align=center;verticalAlign=middle;resizable=0;points=[];" vertex="1" connectable="0" parent="GWUgByOomYjmYWT72F_C-54">
          <mxGeometry x="0.6499" y="2" relative="1" as="geometry">
            <mxPoint x="1" as="offset" />
          </mxGeometry>
        </mxCell>
        <mxCell id="GWUgByOomYjmYWT72F_C-55" value="" style="endArrow=none;html=1;rounded=0;entryX=0.5;entryY=0;entryDx=0;entryDy=0;exitX=0.5;exitY=1;exitDx=0;exitDy=0;" edge="1" parent="1" source="GWUgByOomYjmYWT72F_C-3" target="GWUgByOomYjmYWT72F_C-33">
          <mxGeometry relative="1" as="geometry">
            <mxPoint x="280" y="410" as="sourcePoint" />
            <mxPoint x="320" y="520" as="targetPoint" />
          </mxGeometry>
        </mxCell>
        <mxCell id="GWUgByOomYjmYWT72F_C-61" value="1" style="edgeLabel;html=1;align=center;verticalAlign=middle;resizable=0;points=[];" vertex="1" connectable="0" parent="GWUgByOomYjmYWT72F_C-55">
          <mxGeometry x="-0.5123" y="3" relative="1" as="geometry">
            <mxPoint as="offset" />
          </mxGeometry>
        </mxCell>
        <mxCell id="GWUgByOomYjmYWT72F_C-56" value="" style="endArrow=none;html=1;rounded=0;entryX=0.5;entryY=1;entryDx=0;entryDy=0;exitX=0.5;exitY=0;exitDx=0;exitDy=0;" edge="1" parent="1" source="GWUgByOomYjmYWT72F_C-1" target="GWUgByOomYjmYWT72F_C-33">
          <mxGeometry relative="1" as="geometry">
            <mxPoint x="640" y="410" as="sourcePoint" />
            <mxPoint x="640" y="520" as="targetPoint" />
          </mxGeometry>
        </mxCell>
        <mxCell id="GWUgByOomYjmYWT72F_C-62" value="M" style="edgeLabel;html=1;align=center;verticalAlign=middle;resizable=0;points=[];" vertex="1" connectable="0" parent="GWUgByOomYjmYWT72F_C-56">
          <mxGeometry x="-0.5265" y="-1" relative="1" as="geometry">
            <mxPoint as="offset" />
          </mxGeometry>
        </mxCell>
        <mxCell id="GWUgByOomYjmYWT72F_C-57" value="" style="endArrow=none;html=1;rounded=0;entryX=0.5;entryY=0;entryDx=0;entryDy=0;exitX=0;exitY=1;exitDx=0;exitDy=0;" edge="1" parent="1" source="GWUgByOomYjmYWT72F_C-19" target="GWUgByOomYjmYWT72F_C-34">
          <mxGeometry relative="1" as="geometry">
            <mxPoint x="640" y="410" as="sourcePoint" />
            <mxPoint x="640" y="520" as="targetPoint" />
          </mxGeometry>
        </mxCell>
        <mxCell id="GWUgByOomYjmYWT72F_C-60" value="1" style="edgeLabel;html=1;align=center;verticalAlign=middle;resizable=0;points=[];" vertex="1" connectable="0" parent="GWUgByOomYjmYWT72F_C-57">
          <mxGeometry x="-0.5742" y="3" relative="1" as="geometry">
            <mxPoint as="offset" />
          </mxGeometry>
        </mxCell>
        <mxCell id="GWUgByOomYjmYWT72F_C-58" value="" style="endArrow=none;html=1;rounded=0;entryX=0.5;entryY=1;entryDx=0;entryDy=0;exitX=1;exitY=0.25;exitDx=0;exitDy=0;" edge="1" parent="1" source="GWUgByOomYjmYWT72F_C-1" target="GWUgByOomYjmYWT72F_C-34">
          <mxGeometry relative="1" as="geometry">
            <mxPoint x="1030" y="410" as="sourcePoint" />
            <mxPoint x="960" y="540" as="targetPoint" />
          </mxGeometry>
        </mxCell>
        <mxCell id="GWUgByOomYjmYWT72F_C-59" value="M" style="edgeLabel;html=1;align=center;verticalAlign=middle;resizable=0;points=[];" vertex="1" connectable="0" parent="GWUgByOomYjmYWT72F_C-58">
          <mxGeometry x="-0.6779" y="1" relative="1" as="geometry">
            <mxPoint as="offset" />
          </mxGeometry>
        </mxCell>
      </root>
    </mxGraphModel>
  </diagram>
</mxfile>
